<svg width="248" height="53" viewBox="0 0 248 53" fill="none" xmlns="http://www.w3.org/2000/svg">
<path d="M13.4375 13.6504L29.5625 22.8775" stroke="white" stroke-width="3" stroke-linecap="round" stroke-linejoin="round"/>
<path d="M37.625 20.3334C37.6244 19.705 37.4585 19.0878 37.144 18.5438C36.8295 17.9997 36.3775 17.548 35.8333 17.2338L23.2917 10.0671C22.7469 9.75261 22.129 9.58704 21.5 9.58704C20.871 9.58704 20.2531 9.75261 19.7083 10.0671L7.16667 17.2338C6.62247 17.548 6.17046 17.9997 5.85599 18.5438C5.54152 19.0878 5.37564 19.705 5.375 20.3334V34.6667C5.37564 35.2951 5.54152 35.9122 5.85599 36.4563C6.17046 37.0003 6.62247 37.4521 7.16667 37.7663L19.7083 44.9329C20.2531 45.2474 20.871 45.413 21.5 45.413C22.129 45.413 22.7469 45.2474 23.2917 44.9329L35.8333 37.7663C36.3775 37.4521 36.8295 37.0003 37.144 36.4563C37.4585 35.9122 37.6244 35.2951 37.625 34.6667V20.3334Z" stroke="white" stroke-width="3" stroke-linecap="round" stroke-linejoin="round"/>
<path d="M5.91248 18.5416L21.5 27.5L37.0875 18.5416" stroke="white" stroke-width="3" stroke-linecap="round" stroke-linejoin="round"/>
<path d="M21.5 45.4167V27.5" stroke="white" stroke-width="3" stroke-linecap="round" stroke-linejoin="round"/>
<path d="M60.16 41V20.16H65.64V41H60.16ZM62.88 17.68C62.0267 17.68 61.2933 17.3733 60.68 16.76C60.0667 16.1467 59.76 15.4133 59.76 14.56C59.76 13.68 60.0667 12.9467 60.68 12.36C61.2933 11.7467 62.0267 11.44 62.88 11.44C63.76 11.44 64.4933 11.7467 65.08 12.36C65.6933 12.9467 66 13.68 66 14.56C66 15.4133 65.6933 16.1467 65.08 16.76C64.4933 17.3733 63.76 17.68 62.88 17.68ZM69.9256 41V20.16H75.4056V21.88C76.979 20.4667 78.9256 19.76 81.2456 19.76C82.8723 19.76 84.299 20.12 85.5256 20.84C86.779 21.5333 87.7523 22.5067 88.4456 23.76C89.139 24.9867 89.4856 26.4267 89.4856 28.08V41H84.0056V28.88C84.0056 27.52 83.619 26.4533 82.8456 25.68C82.0723 24.88 81.019 24.48 79.6856 24.48C78.7523 24.48 77.9256 24.6667 77.2056 25.04C76.4856 25.3867 75.8856 25.8933 75.4056 26.56V41H69.9256ZM99.2638 41L90.3438 20.16H96.3038L102.024 34.04L107.704 20.16H113.544L104.584 41H99.2638ZM125.321 41.4C123.241 41.4 121.348 40.92 119.641 39.96C117.961 39 116.628 37.7067 115.641 36.08C114.654 34.4533 114.161 32.6267 114.161 30.6C114.161 28.5733 114.628 26.7467 115.561 25.12C116.521 23.4933 117.814 22.2 119.441 21.24C121.068 20.28 122.881 19.8 124.881 19.8C126.881 19.8 128.654 20.2933 130.201 21.28C131.748 22.2667 132.961 23.6 133.841 25.28C134.748 26.96 135.201 28.8667 135.201 31V32.44H119.761C120.001 33.2667 120.388 34.0133 120.921 34.68C121.481 35.3467 122.161 35.8667 122.961 36.24C123.788 36.6133 124.668 36.8 125.601 36.8C126.534 36.8 127.388 36.6533 128.161 36.36C128.961 36.0667 129.641 35.6533 130.201 35.12L133.801 38.4C132.521 39.44 131.201 40.2 129.841 40.68C128.508 41.16 127.001 41.4 125.321 41.4ZM119.681 28.52H129.801C129.614 27.6933 129.268 26.9733 128.761 26.36C128.281 25.72 127.694 25.2267 127.001 24.88C126.334 24.5067 125.588 24.32 124.761 24.32C123.908 24.32 123.134 24.4933 122.441 24.84C121.774 25.1867 121.201 25.68 120.721 26.32C120.241 26.9333 119.894 27.6667 119.681 28.52ZM138.558 41V20.16H144.038V21.88C145.612 20.4667 147.558 19.76 149.878 19.76C151.505 19.76 152.932 20.12 154.158 20.84C155.412 21.5333 156.385 22.5067 157.078 23.76C157.772 24.9867 158.118 26.4267 158.118 28.08V41H152.638V28.88C152.638 27.52 152.252 26.4533 151.478 25.68C150.705 24.88 149.652 24.48 148.318 24.48C147.385 24.48 146.558 24.6667 145.838 25.04C145.118 25.3867 144.518 25.8933 144.038 26.56V41H138.558ZM171.563 41.32C169.243 41.32 167.483 40.8 166.283 39.76C165.11 38.6933 164.523 37.1467 164.523 35.12V24.72H160.243V20.16H164.523V14.84L170.003 13.6V20.16H175.963V24.72H170.003V34C170.003 34.96 170.217 35.6533 170.643 36.08C171.07 36.48 171.817 36.68 172.883 36.68C173.417 36.68 173.897 36.6533 174.323 36.6C174.777 36.52 175.27 36.3867 175.803 36.2V40.72C175.243 40.9067 174.55 41.0533 173.723 41.16C172.897 41.2667 172.177 41.32 171.563 41.32ZM210.59 41V20.16H216.07V22.48C216.736 21.5733 217.536 20.88 218.47 20.4C219.403 19.92 220.456 19.68 221.63 19.68C222.643 19.7067 223.403 19.8667 223.91 20.16V24.96C223.51 24.7733 223.07 24.64 222.59 24.56C222.11 24.4533 221.616 24.4 221.11 24.4C220.043 24.4 219.07 24.6667 218.19 25.2C217.31 25.7333 216.603 26.4933 216.07 27.48V41H210.59ZM236.298 41.4C234.218 41.4 232.324 40.92 230.618 39.96C228.938 39 227.604 37.7067 226.618 36.08C225.631 34.4533 225.138 32.6267 225.138 30.6C225.138 28.5733 225.604 26.7467 226.538 25.12C227.498 23.4933 228.791 22.2 230.418 21.24C232.044 20.28 233.858 19.8 235.858 19.8C237.858 19.8 239.631 20.2933 241.178 21.28C242.724 22.2667 243.938 23.6 244.818 25.28C245.724 26.96 246.178 28.8667 246.178 31V32.44H230.738C230.978 33.2667 231.364 34.0133 231.898 34.68C232.458 35.3467 233.138 35.8667 233.938 36.24C234.764 36.6133 235.644 36.8 236.578 36.8C237.511 36.8 238.364 36.6533 239.138 36.36C239.938 36.0667 240.618 35.6533 241.178 35.12L244.778 38.4C243.498 39.44 242.178 40.2 240.818 40.68C239.484 41.16 237.978 41.4 236.298 41.4ZM230.658 28.52H240.778C240.591 27.6933 240.244 26.9733 239.738 26.36C239.258 25.72 238.671 25.2267 237.978 24.88C237.311 24.5067 236.564 24.32 235.738 24.32C234.884 24.32 234.111 24.4933 233.418 24.84C232.751 25.1867 232.178 25.68 231.698 26.32C231.218 26.9333 230.871 27.6667 230.658 28.52Z" fill="white"/>
<path d="M185.277 41.36C183.783 41.36 182.463 41.0933 181.317 40.56C180.17 40 179.277 39.24 178.637 38.28C177.997 37.32 177.677 36.2133 177.677 34.96C177.677 32.96 178.423 31.4133 179.917 30.32C181.437 29.2 183.517 28.64 186.157 28.64C187.97 28.64 189.677 28.92 191.277 29.48V27.96C191.277 26.76 190.903 25.8533 190.157 25.24C189.41 24.6267 188.317 24.32 186.877 24.32C185.997 24.32 185.05 24.4667 184.037 24.76C183.023 25.0267 181.85 25.4533 180.517 26.04L178.517 22C180.17 21.2533 181.743 20.6933 183.237 20.32C184.757 19.9467 186.277 19.76 187.797 19.76C190.597 19.76 192.77 20.44 194.317 21.8C195.89 23.1333 196.677 25.0267 196.677 27.48V41H191.277V39.52C190.423 40.16 189.503 40.6267 188.517 40.92C187.53 41.2133 186.45 41.36 185.277 41.36ZM182.877 34.84C182.877 35.64 183.223 36.28 183.917 36.76C184.61 37.2133 185.53 37.44 186.677 37.44C187.583 37.44 188.423 37.3333 189.197 37.12C189.97 36.88 190.663 36.5333 191.277 36.08V33.04C190.61 32.7733 189.917 32.5733 189.197 32.44C188.477 32.3067 187.703 32.24 186.877 32.24C185.623 32.24 184.637 32.48 183.917 32.96C183.223 33.4133 182.877 34.04 182.877 34.84ZM200.824 41V20.16H206.304V41H200.824ZM203.544 17.68C202.691 17.68 201.957 17.3733 201.344 16.76C200.731 16.1467 200.424 15.4133 200.424 14.56C200.424 13.68 200.731 12.9467 201.344 12.36C201.957 11.7467 202.691 11.44 203.544 11.44C204.424 11.44 205.157 11.7467 205.744 12.36C206.357 12.9467 206.664 13.68 206.664 14.56C206.664 15.4133 206.357 16.1467 205.744 16.76C205.157 17.3733 204.424 17.68 203.544 17.68Z" fill="url(#paint0_linear_53_135)"/>
<defs>
<linearGradient id="paint0_linear_53_135" x1="199.875" y1="53" x2="199.875" y2="-1.4618e-07" gradientUnits="userSpaceOnUse">
<stop stop-color="#CDD8FF"/>
<stop offset="1" stop-color="#3A49D4"/>
</linearGradient>
</defs>
</svg>
